<svg xmlns="http://www.w3.org/2000/svg" viewBox="0 0 720 480" role="img" aria-labelledby="title desc">
  <title id="title">第一代机械手键</title>
  <desc id="desc">木制底座上的机械电报键，带有黄铜结构和线缆。</desc>
  <defs>
    <linearGradient id="bg" x1="0" y1="0" x2="1" y2="1">
      <stop offset="0%" stop-color="#25160e"/>
      <stop offset="100%" stop-color="#0f0d13"/>
    </linearGradient>
    <linearGradient id="wood" x1="0" y1="0" x2="0" y2="1">
      <stop offset="0%" stop-color="#8c5a36"/>
      <stop offset="100%" stop-color="#4f2d18"/>
    </linearGradient>
    <linearGradient id="brass" x1="0" y1="0" x2="1" y2="1">
      <stop offset="0%" stop-color="#f2cd79"/>
      <stop offset="100%" stop-color="#8c5d1f"/>
    </linearGradient>
  </defs>
  <rect width="720" height="480" rx="40" fill="url(#bg)"/>
  <circle cx="132" cy="96" r="120" fill="#4bc1ca" opacity=".12"/>
  <circle cx="620" cy="402" r="150" fill="#ffca69" opacity=".08"/>
  <rect x="120" y="260" width="420" height="120" rx="22" fill="url(#wood)" stroke="#ca9a6b" stroke-opacity=".3" stroke-width="4"/>
  <rect x="170" y="214" width="250" height="20" rx="10" fill="url(#brass)"/>
  <rect x="205" y="160" width="24" height="94" rx="10" fill="url(#brass)"/>
  <circle cx="215" cy="152" r="26" fill="url(#brass)"/>
  <rect x="206" y="118" width="18" height="34" rx="9" fill="#332114"/>
  <circle cx="390" cy="224" r="18" fill="#eed7a0"/>
  <rect x="256" y="208" width="160" height="14" rx="7" fill="url(#brass)"/>
  <rect x="298" y="220" width="24" height="68" rx="11" fill="url(#brass)"/>
  <rect x="370" y="220" width="22" height="54" rx="11" fill="url(#brass)"/>
  <circle cx="186" cy="304" r="16" fill="#d7ad66"/>
  <circle cx="236" cy="304" r="16" fill="#d7ad66"/>
  <circle cx="286" cy="304" r="16" fill="#d7ad66"/>
  <path d="M520 328c42 8 76 30 102 66" fill="none" stroke="#6b4d30" stroke-width="16" stroke-linecap="round"/>
  <path d="M596 394c22 4 50 26 64 50" fill="none" stroke="#6b4d30" stroke-width="12" stroke-linecap="round"/>
  <text x="120" y="92" fill="#f6e6bf" font-size="34" font-family="Segoe UI, sans-serif" letter-spacing="4">MECHANICAL KEY</text>
  <text x="120" y="128" fill="#c8af7d" font-size="18" font-family="Cascadia Code, monospace">GEN-I / HIGH SENSITIVITY</text>
</svg>
